<svg xmlns="http://www.w3.org/2000/svg" viewBox="0 0 512 510.67">
  <g id="Search_Optimisation" data-name="Search Optimisation">
    <g id="Paths">
      <g id="Searc_Data" data-name="Searc Data">
        <g id="Data">
          <path d="M135.43,461.15q25,0,49.91,0c11.06,0,15.58,4.58,15.66,15.69,0,6.31.11,12.61,0,18.91-.2,9.46-4.92,14.35-14.31,14.37q-51.49.15-103,0c-9.13,0-13.82-5-13.93-14.09-.08-6.13,0-12.26,0-18.39,0-12.27,4.16-16.48,16.3-16.49Q110.74,461.13,135.43,461.15Zm-.48,41c17.16,0,34.32-.07,51.48.05,4.67,0,6.73-1.83,6.62-6.55-.17-6.65-.14-13.31,0-20,.09-4.37-1.67-6.44-6.18-6.43q-51.48.07-103,0c-4.85,0-6.51,2.31-6.43,6.8.11,6.12,0,12.25,0,18.38,0,6.62,1.09,7.71,7.55,7.72Q110,502.13,135,502.11Z" transform="translate(0 -0.67)"/>
          <path d="M25.9,461.17c4.21,0,8.42-.14,12.62,0,7.9.31,12.93,5,13.24,12.74s.31,15.78,0,23.65c-.31,7.36-5,12.12-12.38,12.43-8.92.37-17.88.37-26.8,0C4.92,509.72.41,504.86.17,497.12S-.07,481.69.2,474c.27-7.86,5.13-12.48,13.09-12.8C17.49,461,21.7,461.17,25.9,461.17Zm-.36,40.94c4,0,8.06-.09,12.08,0s6.23-1.57,6.18-5.85c-.07-7.18,0-14.36,0-21.54,0-3.69-1.78-5.49-5.45-5.49-8.22,0-16.45,0-24.68,0-4,0-5.73,2-5.71,5.83,0,7.18,0,14.36,0,21.53,0,3.61,1.79,5.52,5.49,5.5Q19.5,502.08,25.54,502.11Z" transform="translate(0 -0.67)"/>
        </g>
        <g id="Data-2" data-name="Data">
          <path d="M135.69,395.83q25.22,0,50.42,0c10.09,0,14.73,4.61,14.87,14.76.1,6.65.14,13.31,0,20-.21,9.24-4.86,13.94-14,14q-51.75.11-103.49,0c-9,0-13.55-4.71-13.68-13.64-.09-6.83-.06-13.66,0-20.49.08-10,4.72-14.53,15-14.54Q110.22,395.8,135.69,395.83Zm-.21,40.93c17,0,34-.06,50.94,0,4.65,0,6.74-1.9,6.62-6.61q-.22-10,0-19.95c.1-4.42-1.78-6.46-6.21-6.46q-51.46.06-102.94,0c-4.79,0-6.53,2.31-6.44,6.82.13,5.78,0,11.56,0,17.34,0,7.95.86,8.83,8.61,8.83Z" transform="translate(0 -0.67)"/>
          <path d="M25.59,444.47c-4.55,0-9.11.2-13.65-.05C5.33,444.05.63,439.73.34,433.13,0,424.57,0,416,.34,407.4c.29-6.73,5.24-11.32,12-11.49,8.92-.22,17.86-.2,26.79,0,7.22.15,12.23,4.85,12.57,12.19.38,8,.38,16.11,0,24.15-.33,7.58-5.31,12-13,12.28-4.38.14-8.76,0-13.14,0Zm.69-40.65c-4.38,0-8.75-.07-13.13,0C9.8,403.91,8,405.71,8,409.12q0,11,0,22.05c0,3.62,1.86,5.55,5.49,5.56,8.22,0,16.45,0,24.68,0,3.9,0,5.7-2,5.66-5.88-.07-7.17,0-14.35,0-21.53,0-3.71-1.81-5.49-5.43-5.52C34.33,403.78,30.3,403.81,26.28,403.82Z" transform="translate(0 -0.67)"/>
        </g>
      </g>
      <g id="Search_Charts" data-name="Search Charts">
        <g id="Search">
          <path d="M192.24.67c92.65,2.55,167.66,66,184.39,153.88,7,36.7,3.26,72.52-10.88,107.13-1.48,3.62-1,5.7,1.77,8.07a95.56,95.56,0,0,1,7.78,7.81c9.25,10.11,11.22,24,4.62,36-1.85,3.36-.84,4.67,1.54,6.76,35.79,31.45,71.43,63.07,107.29,94.44,10.51,9.21,19.19,19.26,22.13,33.45A52.24,52.24,0,0,1,485,504.83c-19.9,11-45.83,8-61.52-8.72-17.52-18.61-34-38.16-51-57.33s-34.1-38.6-51-58c-2.5-2.87-4.22-3.19-7.69-1.34-11.8,6.3-25.68,4.14-35.53-5-3.84-3.56-7.13-9.37-11.48-10.27s-9.64,3.17-14.6,4.85C151.77,402.88,43.77,349.15,10.94,249-24.29,141.52,41.47,27.93,152.37,4.69A193.82,193.82,0,0,1,192.24.67Zm-1.36,370.69c99.79-.12,180.89-81.33,181.06-181.3A180.71,180.71,0,0,0,190.59,8.76C90.38,8.88,9.44,89.77,9.38,189.84S90.87,371.48,190.88,371.36ZM454.57,503.19c23.71,0,39.92-11,46.54-28a43.79,43.79,0,0,0-12-49.33c-37.73-33.51-75.66-66.79-113.42-100.26-2.48-2.2-3.73-1.86-5.89.32Q348.56,347.44,327,368.64c-2.75,2.7-2.24,4.15,0,6.68C337.59,387,347.93,399,358.35,410.79q33.52,38.06,67,76.14C434.55,497.37,445.84,503.11,454.57,503.19ZM360.83,274c-.85,1.52-1.45,2.55-2,3.61a192.43,192.43,0,0,1-48.55,59.29A197.27,197.27,0,0,1,278.41,358c-1.07.58-4.26.49-2,3.3,12.56,15.75,28.6,18.78,42.34,4.33,16.41-17.25,33.57-33.78,50.38-50.65a22.44,22.44,0,0,0,1.95-30.11C368.08,281.07,364.41,277.78,360.83,274Z" transform="translate(0 -0.67)"/>
          <path d="M191.07,43c81.62.56,147.39,66.76,146.52,147.5-.87,81.79-66.59,146.92-147.7,146.35S43.07,269.77,43.81,188.8C44.55,108,110.73,42.47,191.07,43Zm-.56,285.79A138.71,138.71,0,0,0,329.67,190.54C329.91,113.55,268,51.13,191.24,51a138.93,138.93,0,1,0-.73,277.85Z" transform="translate(0 -0.67)"/>
        </g>
        <g id="Charts">
          <path id="Up_Indicator" data-name="Up Indicator" d="M263.54,107.67c-4.38,0-7.35.06-10.31,0-2.65-.06-4.45-1.38-4.4-4.13,0-2.53,1.95-3.72,4.25-3.76,6.3-.11,12.61-.12,18.91,0,2.6.06,4.18,1.6,4.18,4.4,0,6.12,0,12.25,0,18.38,0,2.7-1.19,4.62-3.86,4.64s-3.92-1.94-3.88-4.63c0-2.24,0-4.49,0-7.13-2.51.43-3.45,2.23-4.66,3.51-13.86,14.61-27.76,29.18-41.43,44-3.41,3.7-6.1,4-10.28,1.14-14.17-9.65-28.66-18.82-42.84-28.47-3.34-2.27-5.22-2.36-8.25.6-14.52,14.2-29.33,28.1-44,42.1a26.47,26.47,0,0,1-3.15,2.77,3.62,3.62,0,0,1-5.19-.53c-1.45-1.68-1.25-3.56.16-5.23a29.19,29.19,0,0,1,2.23-2.22c16.1-15.34,32.29-30.59,48.24-46.09,3.45-3.36,6.1-3.51,10-.89,14.66,9.87,29.48,19.5,44.24,29.22,1.56,1,2.82,2.44,4.86.27C233,139.9,247.82,124.32,263.54,107.67Z" transform="translate(0 -0.67)"/>
          <g id="Chart">
            <path d="M248.7,203.17q0-26.25,0-52.49c0-8.93,3.51-12.47,12.3-12.53q8.92-.06,17.85,0c8.81,0,12.32,3.52,12.35,12.49.06,23.8,0,47.6,0,71.39,0,11.2.06,22.4,0,33.6-.06,9.1-3.64,12.6-12.83,12.7-5.94.06-11.9.12-17.84,0-8.09-.19-11.8-4-11.82-12.11C248.67,238.52,248.7,220.85,248.7,203.17Zm34.67,0c0-17.34-.09-34.69.07-52,0-3.88-1.25-5.38-5.14-5.25-5.77.2-11.56.13-17.34,0-3.13,0-4.43,1.3-4.36,4.41.11,4.73,0,9.46,0,14.19,0,30,.08,59.92-.09,89.88,0,4.57,1.33,6.3,6,6a115.52,115.52,0,0,1,15.23,0c4.37.27,5.75-1.29,5.7-5.67C283.25,237.5,283.37,220.33,283.37,203.16Z" transform="translate(0 -0.67)"/>
            <path d="M185.61,219.9c0,12.07,0,24.15,0,36.23,0,8.14-3.71,12-11.79,12.17-6.29.16-12.6.14-18.9,0-7.93-.17-11.78-3.79-11.82-11.57q-.18-36.77,0-73.53c0-7.92,3.79-11.39,11.76-11.45,6.65-.05,13.3-.1,20,0,6.84.12,10.71,3.94,10.78,10.84C185.7,195,185.61,207.47,185.61,219.9Zm-34.67-.22c0,11.9.09,23.79-.06,35.68,0,3.54,1,5.12,4.77,5,5.76-.23,11.55-.19,17.31,0,3.33.11,4.74-1,4.73-4.48q-.12-35.94,0-71.88c0-3.49-1.51-4.59-4.78-4.5-5.42.14-10.85.22-16.26,0-4.22-.2-5.91,1.12-5.8,5.63C151.12,196.59,150.94,208.14,150.94,219.68Z" transform="translate(0 -0.67)"/>
            <path d="M196,226.52c0-9.8-.08-19.6,0-29.39.08-7.2,3.74-11,11-11.26q10.23-.33,20.47,0c7.16.23,10.89,4.12,10.91,11.3q.12,29.91,0,59.82c0,7.14-3.76,11-10.95,11.27q-10.23.36-20.46,0C199.7,268,196.05,264.14,196,257,195.88,246.81,196,236.66,196,226.52Zm34.64.71c0-9.44-.12-18.89.06-28.33.07-3.87-1.33-5.28-5.22-5.1-5.76.26-11.54.17-17.31,0-3.09-.08-4.47,1-4.46,4.22q.08,29.12,0,58.23c0,2.86,1.21,4.08,4.12,4,5.77-.11,11.56-.29,17.31.05,4.58.28,5.65-1.71,5.56-5.84C230.45,245.42,230.6,236.32,230.6,227.23Z" transform="translate(0 -0.67)"/>
            <path d="M90.13,240.75c0-5.07-.13-10.15,0-15.22.23-6.94,3.9-10.74,10.78-10.93,7.17-.2,14.35-.22,21.52,0,6.29.22,10.17,4,10.31,10.28.25,10.84.22,21.7,0,32.54-.12,6.54-3.94,10.49-10.49,10.78-7.16.31-14.35.31-21.51,0-6.78-.28-10.43-4.3-10.63-11.2C90,251.6,90.13,246.18,90.13,240.75Zm34.64.59c0-5.06,0-10.13,0-15.19,0-2.63-1-3.82-3.73-3.79-6.46.08-12.93,0-19.39,0-2.4,0-3.47,1.1-3.46,3.5q0,15.47,0,30.91c0,2.4,1,3.5,3.46,3.48,6.47,0,12.93-.07,19.39,0,2.69,0,3.77-1.11,3.73-3.75C124.71,251.47,124.77,246.41,124.77,241.34Z" transform="translate(0 -0.67)"/>
          </g>
        </g>
      </g>
    </g>
  </g>
</svg>
